<svg data-v-152a035f="" width="64mm" height="64mm" viewBox="-1 -1 66 66" xmlns="http://www.w3.org/2000/svg">
	<g>
		<path id="" stroke="#d3bc5f" fill="white" d="
    M 3 0 L 61 0 
    A 3 3 0 0 1 64 3 
    L 64 61
    A 3 3 0 0 1 61 64 
    L 3 64
    A 3 3 0 0 1 0 61
    L 0 3
    A 3 3 0 0 1 3 0
    " />
		<path id="" stroke="#d3bc5f" fill="black" d="
    M 12 6 L 52 6
    A 3 3 0 0 1 55 9
    L 55 32
    A 3 3 0 0 1 52 35
    L 12 35
    A 3 3 0 0 1 9 32
    L 9 9
    A 3 3 0 0 1 12 6
    M 40 48 
    A 10 10 0 0 1 20 48
    A 10 10 0 0 1 40 48
    " />
	</g>
</svg>
